<?xml version="1.0" standalone="no"?>
<!DOCTYPE svg PUBLIC "-//W3C//DTD SVG 20010904//EN"
 "http://www.w3.org/TR/2001/REC-SVG-20010904/DTD/svg10.dtd">
<svg version="1.0" xmlns="http://www.w3.org/2000/svg"
 width="700.000000pt" height="700.000000pt" viewBox="0 0 700.000000 700.000000"
 preserveAspectRatio="xMidYMid meet">
<metadata>
Created by potrace 1.14, written by Peter Selinger 2001-2017
</metadata>
<g transform="translate(0.000000,700.000000) scale(0.100000,-0.100000)"
fill="#000000" stroke="none">
<path d="M3306 4864 c-420 -76 -735 -356 -797 -708 -17 -98 -7 -265 21 -343
86 -246 303 -400 801 -568 353 -120 462 -183 489 -287 27 -99 -10 -178 -111
-233 -71 -38 -197 -47 -280 -20 -74 25 -139 92 -163 168 l-18 57 -392 0 -393
0 10 -62 c14 -99 62 -235 114 -327 55 -97 167 -222 259 -287 195 -139 483
-215 765 -201 495 25 865 274 980 662 30 101 37 294 15 406 -40 199 -155 346
-363 465 -107 61 -248 114 -474 180 -234 67 -329 103 -392 150 -122 89 -112
241 20 305 70 34 188 34 258 -1 56 -28 92 -75 101 -132 l7 -38 389 0 390 0 -7
57 c-18 143 -91 322 -172 421 -193 236 -475 353 -843 351 -74 0 -171 -7 -214
-15z"/>
</g>
</svg>
