<svg width="272" height="272" viewBox="0 0 272 272" fill="none" xmlns="http://www.w3.org/2000/svg">
<g clip-path="url(#clip0_1313_2331)">
<path d="M136 0C60.889 0 3.692e-05 60.889 3.692e-05 136C-0.0156913 157.332 4.99403 178.368 14.6233 197.403C24.2526 216.438 38.2305 232.936 55.4246 245.562C55.3209 239.872 55.2173 234.188 55.327 228.486C55.4978 220.662 56.1077 212.843 56.8212 205C57.3701 198.859 59.8705 193.699 65.713 190.796C69.9821 188.68 74.3121 186.71 78.5202 184.533C79.5179 184.006 80.296 183.141 80.7157 182.094C81.8409 178.857 82.7395 175.545 83.4052 172.183C85.9484 157.876 88.2476 143.52 90.8151 129.218C92.6447 119.046 93.7059 108.757 97.2187 98.8714C102.14 85.0335 110.026 73.9401 123.443 67.4023C128.188 65.0909 133.256 63.4199 138.531 66.3534C138.988 66.6095 139.751 66.3534 140.361 66.2375C141.989 66.0118 143.623 65.4752 145.239 65.5605C150.783 65.8533 154.839 69.2868 158.657 72.7387C167.195 80.4778 172.488 90.376 175.239 101.402C177.544 110.63 178.837 120.101 180.551 129.456C181.703 135.78 183.173 142.08 183.868 148.46C185.222 160.962 188.644 172.604 196.987 182.27C200.359 186.186 203.415 190.626 208.574 192.638C214.032 194.761 217.289 198.566 218.204 204.549C218.881 209.007 222.247 212.538 222.564 217.356C222.888 222.394 224.809 227.315 225.358 232.359C225.559 234.188 225.742 236.073 225.931 237.927C240.414 225.189 252.015 209.508 259.959 191.932C267.903 174.356 272.008 155.288 272 136C272 60.889 211.111 0 136 0Z" fill="#F6DEFF"/>
</g>
<defs>
<clipPath id="clip0_1313_2331">
<rect width="272" height="272" fill="white"/>
</clipPath>
</defs>
</svg>
