<svg width="272" height="272" viewBox="0 0 272 272" fill="none" xmlns="http://www.w3.org/2000/svg">
<g clip-path="url(#clip0_1313_2341)">
<path d="M43.1359 222.211C47.1107 217.19 52.314 213.281 58.2423 210.861C68.1404 206.854 78.2581 203.396 88.272 199.682C89.1644 199.334 90.0203 198.899 90.8274 198.383C93.462 196.737 96.0905 195.084 98.6763 193.358C99.3307 192.925 99.8622 192.331 100.219 191.632C104.08 183.326 103.787 175.22 98.3897 167.695C95.9929 164.34 95.5843 160.529 94.9623 156.778C94.2365 152.418 94.0353 147.978 93.5657 143.575C93.5605 143.007 93.3578 142.459 92.9924 142.025C89.565 139.403 89.5832 135.494 88.9795 131.78C88.6414 129.731 88.1584 127.71 87.5341 125.73C87.0035 124.028 87.0279 122.681 88.5221 121.406C89.0099 120.843 89.2746 120.12 89.2661 119.375C89.3271 116.893 89.2661 114.405 89.1868 111.923C89.127 110.564 88.9598 109.212 88.6867 107.879C88.2111 105.482 87.6805 103.092 87.0767 100.725C86.7721 99.9046 86.4199 99.1022 86.0216 98.3225C85.7045 97.5236 85.0641 96.5539 85.2837 95.8831C85.6039 95.0293 85.7358 94.1165 85.6706 93.2071C85.6053 92.2977 85.3444 91.4131 84.9056 90.6138C84.6129 90.0466 85.3142 88.2475 85.8021 88.1439C87.5768 87.7596 87.1316 86.357 87.6622 85.3507C88.4855 83.7955 89.8516 82.5392 90.8579 81.0816C91.2604 80.4717 91.3092 79.6545 91.5165 78.9349L89.3332 78.6544L93.5657 74.8366C92.8216 72.3971 94.2914 70.5675 96.8711 69.2929C97.3296 69.1214 97.7456 68.8531 98.0909 68.5062C99.9886 66.1757 102.671 64.6168 105.635 64.1213C106.855 63.8895 107.977 63.2126 109.654 62.5356L106.952 62.2795C106.952 62.066 106.952 61.8526 106.952 61.6391C113.185 59.1265 119.381 60.9134 126.023 62.1087C125.413 61.2854 124.907 60.6633 124.431 60.0352C124.48 59.8766 124.529 59.7119 124.583 59.5473L127.59 60.767C128.522 61.1995 129.477 61.5802 130.45 61.9074C131.597 62.2368 132.798 62.4075 133.975 62.6393C134.274 62.7463 134.591 62.794 134.908 62.7796C136.823 62.3344 138.726 61.8343 140.757 61.322C141.092 62.1758 141.428 63.0357 141.818 64.0481C145.569 63.6151 149.521 61.4988 152.997 64.8714C157.76 63.6517 159.956 67.445 162.645 70.037H160.633C161.602 70.9883 162.072 71.7263 162.743 72.0434C163.962 72.6533 165.621 72.6533 165.493 74.7024C165.493 74.9342 166.219 75.4221 166.621 75.4465C169.726 75.5989 171.409 77.5993 172.824 80.0205C173.647 81.5334 174.551 83.0012 175.532 84.4176C177.483 87.0644 176.538 90.0161 176.635 92.8764C176.718 94.7213 177.002 96.5516 177.483 98.3347C176.581 99.1031 175.91 99.7923 176.184 101.756C176.477 103.848 175.141 106.141 174.72 108.379C173.97 112.356 173.434 116.307 175.41 120.192C175.769 120.906 175.629 121.937 175.55 122.803C175.355 124.827 175.05 126.84 174.806 128.852C174.233 133.573 174.775 138.543 171.397 142.605C170.708 143.428 170.482 144.648 170.073 145.697C169.903 146.148 169.964 146.795 169.665 147.069C165.749 150.625 167.603 155.906 165.737 160.102C164.347 163.23 163.615 166.652 162.493 169.909C161.59 172.531 161.224 174.787 162.865 177.55C165.261 181.612 166.878 186.143 168.738 190.51C169.305 191.839 169.866 192.669 171.488 193.083C172.964 193.462 174.165 194.913 175.507 195.828C176.849 196.743 178.081 197.999 179.563 198.469C183.094 199.591 186.692 200.359 189.51 203.122C190.339 203.933 191.827 204.165 193.065 204.457C196.761 205.342 200.28 206.287 203.207 209.135C204.793 210.666 207.434 211.038 209.416 212.227C214.868 215.484 220.448 218.588 225.553 222.326C228.687 224.624 231.771 226.99 234.804 229.425C258.726 204.206 272.042 170.76 272 136C272 60.889 211.111 0 136 0C60.8891 0 0.000110867 60.889 0.000110867 136C-0.0448102 171.144 13.5626 204.932 37.952 230.236C39.4048 227.393 41.1416 224.704 43.1359 222.211V222.211Z" fill="#F6DEFF"/>
<path d="M173.038 80.8858L169.245 76.9766L168.324 77.9462L172.276 81.6908L173.038 80.8858Z" fill="#F6DEFF"/>
</g>
<defs>
<clipPath id="clip0_1313_2341">
<rect width="272" height="272" fill="white"/>
</clipPath>
</defs>
</svg>
