<svg width="272" height="272" viewBox="0 0 272 272" fill="none" xmlns="http://www.w3.org/2000/svg">
<g clip-path="url(#clip0_1313_2351)">
<path d="M48.9967 239.25C49.264 235.794 49.9795 232.386 51.1251 229.114C53.5646 222.601 58.9253 218.429 64.4019 214.673C68.9454 211.556 74.2817 209.501 77.4225 204.634C78.7642 202.542 80.5084 200.365 80.8133 198.029C81.594 192.089 81.722 186.058 82.0331 180.057C82.338 173.867 82.521 167.676 82.7527 161.486C82.8869 157.827 83.4053 154.168 83.0515 150.588C81.6245 136.256 84.0029 122.443 87.6133 108.635C89.6503 100.847 91.4677 93.0106 95.1879 85.8691C97.6571 81.0888 100.601 76.5692 103.976 72.3788C107.056 68.5855 111.904 67.8902 116.588 67.256C117.649 67.1096 118.991 67.1035 119.686 66.4753C123.4 63.1089 127.578 63.237 132.042 64.3103C147.234 67.9695 158.876 75.977 165.865 90.4309C171.22 101.518 173.184 113.295 174.55 125.321C175.928 137.657 177.365 149.986 178.861 162.31C179.77 169.915 180.636 177.556 181.819 185.1C182.595 190.593 183.757 196.024 185.295 201.353C185.905 203.335 188.345 204.799 190.028 206.403C191.15 207.452 192.583 208.19 193.62 209.312C195.285 211.142 197.042 212.288 198.688 211.617C200.103 213.075 201 214.356 202.201 215.185C209.336 220.094 216.88 224.485 223.546 229.925C225.472 231.614 227.067 233.647 228.248 235.92C242.061 223.201 253.081 207.753 260.613 190.553C268.144 173.353 272.021 154.776 272 136C272 60.889 211.111 0 136 0C60.889 0 6.3841e-05 60.889 6.3841e-05 136C-0.019268 155.932 4.35209 175.624 12.8034 193.675C21.2548 211.727 33.5786 227.695 48.8991 240.446C48.9296 240.043 48.954 239.677 48.9967 239.25Z" fill="#F6DEFF"/>
</g>
<defs>
<clipPath id="clip0_1313_2351">
<rect width="272" height="272" fill="white"/>
</clipPath>
</defs>
</svg>
