<svg width="272" height="272" viewBox="0 0 272 272" fill="none" xmlns="http://www.w3.org/2000/svg">
<g clip-path="url(#clip0_1313_2335)">
<path d="M51.3324 242.428C62.3771 237.104 73.2876 231.481 84.2652 226.059C87.9244 224.229 91.6262 222.278 95.4989 220.942C101.988 218.71 105.208 213.38 108.617 208.135C109.995 206.019 111.849 203.866 112.276 201.536C112.978 197.438 111.971 193.785 108.684 190.37C103.805 185.302 101.366 178.569 99.0361 171.982C97.6639 168.073 96.8345 163.968 95.6026 160.004C95.3525 159.193 94.334 158.644 93.773 157.919C92.7179 156.626 91.303 155.436 90.7663 153.942C88.3269 147.136 85.9179 140.293 83.9907 133.329C83.3511 130.662 83.4057 127.876 84.1493 125.236C85.0641 121.863 86.6863 121.443 90.1382 122.595C90.6322 122.76 91.1445 122.864 91.8275 123.053C92.0471 122.443 92.4374 121.833 92.3398 121.485C89.9552 113.923 91.3274 106.293 91.6933 98.6518C91.99 90.23 95.1405 82.1592 100.628 75.7636C104.055 71.7324 107.562 67.6158 111.679 64.3652C115.795 61.1146 120.345 58.0226 126.242 58.6081C127.621 58.7422 129.109 57.2054 130.578 57.1322C135.079 56.9187 139.598 56.998 144.105 57.0651C146.362 57.0956 148.71 56.9858 150.856 57.5591C156.65 59.1021 161.37 62.6698 166.103 66.1826C168.451 67.9207 169.348 71.1713 171.086 72.4154C174.629 74.9525 176.196 78.5141 178.349 81.7647C179.916 84.1248 180.862 86.9912 181.661 89.7539C183.252 94.8686 184.545 100.071 185.533 105.336C186.082 108.568 185.533 111.99 185.405 115.319C185.255 116.589 185.027 117.847 184.722 119.088C185.755 118.946 186.774 118.721 187.772 118.418C191.486 116.82 193.62 117.759 194.937 121.644C196.796 126.899 196.775 132.637 194.876 137.878C193.407 142.032 192.516 146.417 190.607 150.375C189.461 152.747 186.887 154.43 184.655 156.729C183.722 161.791 183.015 167.78 181.411 173.513C180.398 177.135 177.971 180.349 176.324 183.813C175.41 185.722 174.806 187.778 174.062 189.766L175.129 190.211L176.763 187.558C176.91 189.351 177.203 190.388 177.032 191.345C176.66 193.37 177.416 194.395 179.172 195.462C182.636 197.621 186.198 199.902 186.948 204.5C187.049 205.04 187.328 205.529 187.741 205.891C192.468 209.592 196.737 214.331 202.061 216.703C212.715 221.448 223.693 225.449 234.603 229.614C258.641 204.378 272.034 170.852 272 136C272 60.889 211.111 0 136 0C60.889 0 5.39055e-05 60.889 5.39055e-05 136C-0.0181798 156.461 4.58952 176.662 13.4786 195.092C22.3677 213.522 35.3082 229.704 51.3324 242.428V242.428Z" fill="#F6DEFF"/>
</g>
<defs>
<clipPath id="clip0_1313_2335">
<rect width="272" height="272" fill="white"/>
</clipPath>
</defs>
</svg>
