<svg width="272" height="272" viewBox="0 0 272 272" fill="none" xmlns="http://www.w3.org/2000/svg">
<g clip-path="url(#clip0_1313_2333)">
<path d="M44.5202 236.906C52.4973 233.42 60.3767 229.653 68.305 226.075C77.0138 222.148 85.491 217.838 92.48 211.14C93.0573 210.477 93.458 209.679 93.6449 208.819C94.8646 204.442 96.1941 200.088 97.0784 195.649C97.5541 193.207 97.2065 190.63 97.2553 188.115C97.3528 183.041 95.8282 178.504 93.7363 173.851C91.4737 168.832 90.4736 163.239 89.0099 157.872C88.6353 156.211 88.3443 154.532 88.1378 152.841C82.1184 154.221 80.0022 152.682 78.7093 146.937C77.6908 142.4 75.8978 138.035 75.0501 133.504C74.2877 129.474 74.3243 125.292 74.0255 121.17C74.0255 120.883 74.0255 120.438 74.239 120.303C78.8129 116.994 76.0259 112.335 76.4833 108.269C77.2029 101.876 77.9774 95.4891 78.7703 89.1085C78.9877 86.8253 79.3668 84.5605 79.9046 82.331C80.4657 80.2856 81.1243 78.118 82.3441 76.445C84.1127 74.0027 86.6863 72.1709 88.4061 69.7286C89.4429 68.251 89.51 66.0651 90.0772 63.9952C90.687 63.3846 91.8641 62.5542 92.4434 61.4125C95.4135 55.5875 99.585 51.2523 105.964 49.1458C109.751 47.9247 113.356 46.0929 117.131 44.8229C119.052 44.281 121.028 43.9594 123.022 43.8643C124.931 43.6689 126.858 43.6384 128.779 43.6078C132.737 43.559 136.75 42.753 140.293 45.7083C141.349 46.5936 143.343 46.5997 144.91 46.5753C151.558 46.4837 156.18 50.5196 160.474 54.6411C162.145 56.2469 162.334 59.4097 163.017 61.3575C167.237 64.5631 171.354 67.5549 175.288 70.7605C176.221 71.5237 176.782 72.9647 177.117 74.1981C178.337 78.753 179.172 83.4301 180.575 87.924C182.793 94.794 183.574 102.048 182.868 109.233C182.685 111.004 183.326 112.024 185.082 112.933C185.789 113.379 186.4 113.96 186.88 114.643C187.361 115.326 187.701 116.098 187.881 116.914C189.009 122.898 190.022 128.87 186.57 134.67C184.875 137.509 184.179 140.929 182.764 143.963C180.392 149.043 178.282 149.984 172.446 148.683C171.836 152.145 171.458 155.625 170.659 159.02C168.921 166.463 167.536 173.925 168.042 181.612C168.097 182.467 168.5 183.773 169.103 184.054C173.037 185.77 174.696 189.22 176.001 192.871C176.916 195.429 177.3 198.006 179.922 199.795C181.319 200.748 181.996 203.007 182.63 204.802C184.198 209.241 187.046 212.318 191.242 214.486C203.878 221.001 216.356 227.833 229.053 234.22C229.334 234.366 229.633 234.488 229.925 234.623C243.239 221.923 253.835 206.646 261.068 189.72C268.301 172.793 272.02 154.571 272 136.16C272 60.9606 211.111 0 136 0C60.889 0 8.49956e-05 60.9606 8.49956e-05 136.16C-0.0211309 155.135 3.92968 173.904 11.5978 191.256C19.2659 208.608 30.4811 224.159 44.5202 236.906V236.906Z" fill="#F6DEFF"/>
</g>
<defs>
<clipPath id="clip0_1313_2333">
<rect width="272" height="272" fill="white"/>
</clipPath>
</defs>
</svg>
