<svg width="272" height="272" viewBox="0 0 272 272" fill="none" xmlns="http://www.w3.org/2000/svg">
<g clip-path="url(#clip0_1313_2347)">
<path d="M41.3856 221.589C43.5018 218.228 46.4231 214.935 49.7651 212.886C55.443 209.403 61.7612 206.952 67.7745 204.006C68.7634 203.538 69.6488 202.876 70.3786 202.061C76.1113 195.352 81.8197 188.698 89.2234 183.722C90.4982 182.773 91.7198 181.755 92.8826 180.673C91.73 176.83 88.4428 174.397 88.8331 170.409C88.8758 169.982 88.394 169.518 88.2233 169.049C87.7354 167.829 87.0035 166.609 86.8572 165.389C86.4486 161.614 86.8572 157.687 83.9481 154.57C83.5881 154.069 83.4096 153.461 83.4419 152.844C83.5334 147.472 83.7042 142.099 83.8017 136.732C83.7978 135.709 83.7039 134.689 83.5212 133.683C82.5637 127.523 80.7158 121.436 82.1551 115.094C82.5332 113.435 82.9296 111.892 84.9971 111.49C85.2885 111.347 85.5431 111.139 85.741 110.882C85.9388 110.625 86.0745 110.326 86.1375 110.008C86.6132 106.739 86.8816 103.439 87.3573 100.17C87.9671 96.2185 88.2964 92.1629 89.4796 88.3756C96.4442 66.1277 124.663 51.7837 145.441 64.3896C152.796 68.866 159.37 73.8913 163.658 81.4658C167.237 87.7901 167.866 94.8463 168.372 101.89C168.695 106.3 168.86 110.721 169.098 115.307C173.062 115.173 173.708 117.802 174.33 120.711C175.434 125.901 173.763 130.725 172.574 135.585C172.136 137.192 171.297 138.662 170.134 139.854C168.219 141.818 167.573 144.123 167.414 146.697C166.847 155.711 165.152 164.414 160.529 172.354C160.348 172.744 160.255 173.168 160.255 173.598C160.255 174.028 160.348 174.452 160.529 174.842C163.023 179.203 165.64 183.496 168.25 187.79C168.774 188.837 169.466 189.791 170.299 190.613C172.232 192.199 174.367 193.547 176.398 195.035C180.667 198.182 184.765 201.579 189.205 204.47C200.554 211.873 212.227 218.789 223.412 226.425C226.225 228.374 228.772 230.683 230.987 233.292C243.982 220.642 254.307 205.513 261.352 188.802C268.397 172.09 272.017 154.136 272 136C272 60.889 211.111 0 136 0C60.8891 0 0.000119064 60.889 0.000119064 136C-0.0460168 170.829 13.3173 204.339 37.3178 229.578C38.4207 226.793 39.7826 224.118 41.3856 221.589V221.589Z" fill="#F6DEFF"/>
</g>
<defs>
<clipPath id="clip0_1313_2347">
<rect width="272" height="272" fill="white"/>
</clipPath>
</defs>
</svg>
